#!OML:ASF E:\Mandelcareful walks\Project 1\Capture day 1\Session 1\Subject1.ASF
:FULLY-SPECIFIED
:DEGREES
708
root 33.0395 13.9691 0.707919 -158.078 -22.3245 174.368
lowerback 34.3214 2.24254 0.998251
upperback 6.02334 1.14202 -4.4842
thorax -10.7379 -0.110415 -5.67766
lowerneck -24.719 13.5184 6.04909
upperneck 9.78095 18.8359 -14.519
head 9.079 7.62077 -2.86665
rclavicle 9.06458e-014 -1.09133e-013
rhumerus -20.1432 -1.13576 -71.8354
rradius 69.9226
rwrist -15.2078
rhand -19.1808 -19.2404
rfingers 7.12502
rthumb 7.13062 -49.1003
lclavicle 9.06458e-014 -1.09133e-013
lhumerus -10.8941 -28.0844 69.1929
lradius 75.7344
lwrist 19.3091
lhand -22.4643 -20.9559
lfingers 7.12502
lthumb 3.96039 8.98704
rfemur -58.2605 -20.0131 -1.91335
rtibia 66.9905
rfoot -16.4891 -7.38495
rtoes -19.3053
lfemur -56.42 22.2523 -13.0743
ltibia 73.1197
lfoot -23.9897 6.91694
ltoes -24.236
709
root 32.8263 13.9716 0.791735 -158.102 -22.7148 174.366
lowerback 34.0005 2.34967 0.818393
upperback 6.22449 1.21917 -4.39964
thorax -10.3835 -0.0659639 -5.50557
lowerneck -26.2096 12.6061 5.11715
upperneck 10.6135 17.5387 -12.5465
head 9.1579 7.08254 -2.27281
rclavicle 2.22639e-014 5.4467e-014
rhumerus -20.0537 -1.6779 -71.5935
rradius 69.4804
rwrist -15.0123
rhand -19.2243 -18.9371
rfingers 7.12502
rthumb 7.0886 -48.7984
lclavicle 2.22639e-014 5.4467e-014
lhumerus -10.6228 -28.1856 69.3378
lradius 75.7117
lwrist 19.3639
lhand -22.1178 -20.9578
lfingers 7.12502
lthumb 4.29504 8.9786
rfemur -56.9669 -20.2229 -3.03454
rtibia 65.3988
rfoot -15.4955 -7.45592
rtoes -18.8503
lfemur -56.9361 21.3663 -13.8388
ltibia 73.9134
lfoot -24.8113 7.01826
ltoes -22.6326
710
root 32.666 13.9708 0.889384 -157.99 -23.2569 174.609
lowerback 33.7965 2.51179 0.42108
upperback 6.22124 1.33936 -4.1704
thorax -10.3041 0.00918652 -5.08678
lowerneck -27.2702 11.4857 4.08157
upperneck 11.1759 15.9295 -10.3215
head 9.06036 6.47767 -1.64654
rclavicle 5.96354e-015 5.24792e-014
rhumerus -20.1729 -1.76669 -71.531
rradius 69.5551
rwrist -15.7219
rhand -20.4442 -20.4216
rfingers 7.12502
rthumb 5.911 -50.3192
lclavicle 5.96354e-015 5.24792e-014
lhumerus -10.5303 -28.2897 69.4784
lradius 75.6763
lwrist 19.403
lhand -22.0317 -20.8079
lfingers 7.12502
lthumb 4.37812 9.1268
rfemur -56.0221 -19.3536 -3.95452
rtibia 64.1379
rfoot -14.7138 -8.94881
rtoes -19.485
lfemur -57.8921 20.9335 -14.3393
ltibia 74.6772
lfoot -25.2739 6.8165
ltoes -21.4495
711
root 32.3519 14.0478 0.888547 -160.562 -21.8795 175.616
lowerback 35.1862 3.13869 0.612165
upperback 6.79787 1.95592 -4.21918
thorax -10.1265 0.214864 -5.48185
lowerneck -28.1853 10.2792 2.88738
upperneck 11.5695 14.258 -8.07654
head 8.92584 5.86171 -0.990998
rclavicle -3.91606e-014 4.83047e-014
rhumerus -20.1269 -1.88155 -71.4643
rradius 69.2932
rwrist -15.8528
rhand -20.4721 -20.5014
rfingers 7.12502
rthumb 5.88403 -50.3997
lclavicle -3.91606e-014 4.83047e-014
lhumerus -10.7247 -28.2698 69.7317
lradius 75.6374
lwrist 19.8132
lhand -22.5051 -20.6287
lfingers 7.12502
lthumb 3.92105 9.31497
rfemur -52.4325 -17.3026 -5.03
rtibia 61.9774
rfoot -14.0095 -9.04841
rtoes -21.7946
lfemur -54.38 21.1655 -14.0099
ltibia 75.1113
lfoot -27.4 7.31474
ltoes -20.1045
712
root 32.2519 14.0102 1.03568 -158.663 -23.3214 175.726
lowerback 33.3608 2.83961 -0.0632568
upperback 6.37812 1.65061 -3.7311
thorax -9.94679 0.169321 -4.45733
lowerneck -29.118 8.94519 1.68694
upperneck 12.0118 12.4572 -5.8913
head 8.87734 5.18326 -0.353943
rclavicle 6.97734e-014 5.14852e-014
rhumerus -20.0832 -2.06873 -71.3619
rradius 68.8561
rwrist -15.5964
rhand -19.8546 -19.6716
rfingers 7.12502
rthumb 6.48022 -49.5525
lclavicle 6.97734e-014 5.14852e-014
lhumerus -11.1175 -28.3258 69.9358
lradius 75.6642
lwrist 20.1335
lhand -23.3643 -20.3405
lfingers 7.12502
lthumb 3.09128 9.61687
rfemur -53.4557 -18.0684 -5.13773
rtibia 60.9207
rfoot -12.8693 -10.287
rtoes -21.7504
lfemur -58.1142 20.5373 -15.041
ltibia 75.9004
lfoot -26.897 7.05744
ltoes -19.9871
713
root 32.026 14.0483 1.11424 -159.02 -23.7833 176.091
lowerback 33.3554 2.83103 0.549638
upperback 6.46457 1.82269 -3.9037
thorax -9.81673 0.235996 -5.03451
lowerneck -29.8914 7.20248 1.0211
upperneck 12.3788 9.89917 -3.65296
head 8.85628 4.20086 0.113737
rclavicle -5.14852e-014 4.21423e-014
rhumerus -20.6882 -3.26125 -71.5094
rradius 68.6892
rwrist -15.3047
rhand -19.701 -19.2062
rfingers 7.12502
rthumb 6.62847 -49.0825
lclavicle -5.14852e-014 4.21423e-014
lhumerus -10.878 -29.5032 69.475
lradius 75.5538
lwrist 20.2454
lhand -23.9217 -20.0203
lfingers 7.12502
lthumb 2.553 9.94416
rfemur -51.6231 -17.5994 -6.03531
rtibia 59.1115
rfoot -11.9234 -10.9028
rtoes -21.7238
lfemur -58.017 19.4949 -15.4151
ltibia 76.3134
lfoot -27.7526 7.3959
ltoes -19.1526
714
root 31.8204 14.0903 1.18817 -159.316 -24.0123 176.57
lowerback 33.1534 2.81626 0.170851
upperback 6.5153 1.73992 -3.47018
thorax -9.70327 0.209956 -4.32883
lowerneck -30.2118 5.50107 -0.738669
upperneck 12.3479 7.81018 -1.32547
head 8.66776 3.41275 0.852737
rclavicle -7.2954e-014 -7.95139e-015
rhumerus -20.5726 -2.7437 -71.3328
rradius 68.4759
rwrist -15.3041
rhand -19.8101 -19.1702
rfingers 7.12502
rthumb 6.52312 -49.0498
lclavicle -7.2954e-014 -7.95139e-015
lhumerus -11.419 -29.0141 69.9561
lradius 75.381
lwrist 20.5688
lhand -23.9494 -20.0582
lfingers 7.12502
lthumb 2.52618 9.90661
rfemur -50.3592 -16.764 -6.70833
rtibia 57.742
rfoot -10.7331 -11.8616
rtoes -22.545
lfemur -57.978 18.9656 -15.7982
ltibia 76.6825
lfoot -28.4392 7.6136
ltoes -18.8558
715
root 31.6263 14.1189 1.26232 -159.524 -24.2926 177.017
lowerback 32.9442 2.85454 -0.16871
upperback 6.5996 1.72503 -3.1032
thorax -9.54277 0.212506 -3.74213
lowerneck -30.589 3.5342 -2.35179
upperneck 12.282 5.32272 1.03842
head 8.58275 2.44483 1.54259
rclavicle -5.15846e-014 -1.35174e-014
rhumerus -20.5041 -2.76417 -71.3092
rradius 68.3386
rwrist -15.4082
rhand -19.8088 -19.0786
rfingers 7.12502
rthumb 6.52439 -48.9581
lclavicle -5.15846e-014 -1.35174e-014
lhumerus -11.7317 -28.91 70.3103
lradius 75.2407
lwrist 20.9348
lhand -24.0265 -19.9842
lfingers 7.12502
lthumb 2.45179 9.98143
rfemur -49.1083 -15.5778 -7.65854
rtibia 56.2346
rfoot -9.49713 -12.7631
rtoes -20.9634
lfemur -58.1378 18.8269 -16.3681
ltibia 76.9527
lfoot -28.8848 7.772
ltoes -19.4872
716
root 31.4234 14.1612 1.33713 -159.857 -24.4452 177.418
lowerback 32.9825 3.14139 -0.0223168
upperback 6.76352 2.10797 -3.11959
thorax -9.34732 0.380308 -3.97475
lowerneck -30.8752 1.21969 -3.25887
upperneck 12.0453 2.12289 3.26709
head 8.57447 1.15822 1.9769
rclavicle -1.63003e-014 -6.71892e-014
rhumerus -21.0598 -4.10545 -71.4307
rradius 68.5532
rwrist -15.5779
rhand -19.6767 -18.8268
rfingers 7.12502
rthumb 6.65189 -48.7023
lclavicle -1.63003e-014 -6.71892e-014
lhumerus -11.2505 -30.3524 70.0057
lradius 75.0882
lwrist 21.3847
lhand -24.597 -19.9339
lfingers 7.12502
lthumb 1.90075 10.0374
rfemur -47.8843 -14.1289 -8.73584
rtibia 54.9106
rfoot -8.08776 -13.7435
rtoes -18.857
lfemur -57.878 18.3825 -16.8396
ltibia 77.0446
lfoot -29.6505 8.02637
ltoes -19.4428
717
root 31.2311 14.2225 1.42481 -159.938 -24.8214 177.824
lowerback 32.8354 3.18762 0.0311271
upperback 6.76321 2.23477 -2.8849
thorax -9.28539 0.446002 -3.7973
lowerneck -30.1471 -0.940671 -4.62867
upperneck 11.2463 -0.682327 5.48585
head 8.31098 0.0172866 2.52576
rclavicle 5.36719e-015 3.18055e-015
rhumerus -21.7223 -4.50981 -71.2846
rradius 69.0143
rwrist -15.9582
rhand -19.7569 -18.9382
rfingers 7.12502
rthumb 6.57448 -48.8162
lclavicle 5.36719e-015 3.18055e-015
lhumerus -11.3562 -31.3164 70.1457
lradius 74.8691
lwrist 22.0157
lhand -25.3765 -20.1855
lfingers 7.12502
lthumb 1.14798 9.79115
rfemur -47.2081 -13.2012 -9.25127
rtibia 53.8066
rfoot -5.6486 -15.1695
rtoes -18.4367
lfemur -57.8127 17.3052 -17.0842
ltibia 76.9194
lfoot -30.2963 8.31587
ltoes -18.2927
